<?xml version="1.0" encoding="UTF-8"?>
<svg width="24px" height="25px" viewBox="0 0 24 25" version="1.1" xmlns="http://www.w3.org/2000/svg" xmlns:xlink="http://www.w3.org/1999/xlink">
    <title>Group 26@1.5x</title>
    <defs>
        <filter id="filter-1">
            <feColorMatrix in="SourceGraphic" type="matrix" values="0 0 0 0 0.847000 0 0 0 0 0.847000 0 0 0 0 0.847000 0 0 0 1.000000 0"></feColorMatrix>
        </filter>
    </defs>
    <g id="Symbols" stroke="none" stroke-width="1" fill="none" fill-rule="evenodd">
        <g id="Group-26" transform="translate(-176.000000, -11.000000)" filter="url(#filter-1)">
            <g transform="translate(176.000000, 11.000000)">
                <path d="M15.8218018,21.7776764 L13.7448599,25 L9.84836496,25 L8.72157439,23.272034 L15.8218018,21.7776764 Z M16.230175,19.7785673 C16.3168124,20.1380164 16.0940787,20.4993062 15.7327251,20.585487 L8.87844692,22.2200765 C8.82579158,22.2326271 8.77296802,22.2386514 8.72098559,22.2386514 C8.41682952,22.2386514 8.1412722,22.0323196 8.06725191,21.7252484 C7.98061454,21.365632 8.2033483,21.0043422 8.56470186,20.9181614 L15.41898,19.2837392 C15.7806701,19.1973911 16.1435377,19.4191183 16.230175,19.7785673 Z M19.4505788,18.6105922 L20.3800381,19.5351527 C20.6429783,19.7965398 20.6429783,20.2204152 20.3802063,20.4818023 C20.2486521,20.6124958 20.0765549,20.6779263 19.9042895,20.6779263 C19.7320241,20.6779263 19.559927,20.6124958 19.428541,20.4819696 L18.4989135,19.5574091 C18.2361415,19.296022 18.2361415,18.8721466 18.4989135,18.6107595 C18.7616855,18.3492051 19.1878068,18.3493724 19.4505788,18.6105922 Z M5.29063335,18.4014156 C5.55357358,18.6628026 5.55357358,19.0866781 5.29080158,19.3480652 L4.36134235,20.2726257 C4.22978812,20.4033192 4.05769096,20.4687497 3.88542557,20.4687497 C3.71316019,20.4687497 3.54106303,20.4033192 3.40967703,20.2727931 C3.1467368,20.011406 3.1467368,19.5875305 3.4095088,19.3261435 L4.33896803,18.4014156 C4.60190827,18.1400285 5.02802957,18.1400285 5.29063335,18.4014156 Z M12.0000336,4.24971535 C16.4404095,4.24971535 18.2663553,6.7671975 18.9594543,8.26791405 C20.1109743,10.760797 19.7841075,14.0256253 18.1990641,15.8625305 C16.5339442,17.7921427 15.3501243,18.0652437 8.77964667,19.581021 C8.72934652,19.5927348 8.67837346,19.5984244 8.62773686,19.5984244 C8.474313,19.5984244 8.32391724,19.546214 8.20279314,19.4479846 C8.0428084,19.3184625 7.95162887,19.1231752 7.9548252,18.9183495 C7.95499343,18.8400338 7.93295557,17.2892822 6.12669244,16.0198313 C4.46308659,14.8506178 3.87580294,12.0597 4.73023252,9.38374567 C5.75675926,6.16895244 8.474313,4.24971535 12.0000336,4.24971535 Z M13.2311255,8.26583902 L10.8254663,8.26583902 L10.825,10.656 L8.41980715,10.6564287 L8.41980715,13.0470183 L10.825,13.047 L10.8254663,15.437608 L13.2311255,15.437608 L13.231,13.047 L15.6367847,13.0470183 L15.6367847,10.6564287 L13.231,10.656 L13.2311255,8.26583902 Z M23.3270883,11.415319 C23.6987038,11.415319 24,11.7150272 24,12.0846841 C24,12.4543409 23.6987038,12.7540492 23.3270883,12.7540492 L22.0125554,12.7540492 C21.6409399,12.7540492 21.3396437,12.4543409 21.3396437,12.0846841 C21.3396437,11.7150272 21.6409399,11.415319 22.0125554,11.415319 L23.3270883,11.415319 Z M1.98744459,11.1194428 C2.35906005,11.1194428 2.66035625,11.4191511 2.66035625,11.7888079 C2.66035625,12.1584648 2.35906005,12.458173 1.98744459,12.458173 L0.672911661,12.458173 C0.301296196,12.458173 -3.66684461e-12,12.1584648 -3.66684461e-12,11.7888079 C-3.66684461e-12,11.4191511 0.301296196,11.1194428 0.672911661,11.1194428 L1.98744459,11.1194428 Z M20.590508,3.60078262 C20.85328,3.86216969 20.85328,4.28604514 20.590508,4.54743222 L19.6610488,5.4721601 C19.5294946,5.6026863 19.3573974,5.66811673 19.185132,5.66811673 C19.0128666,5.66811673 18.8407695,5.6026863 18.7092152,5.4721601 C18.4464432,5.21060569 18.4464432,4.78689758 18.7092152,4.52534317 L19.6388427,3.60078262 C19.9016147,3.33939555 20.327736,3.33939555 20.590508,3.60078262 Z M4.5715263,3.39152236 L5.50115376,4.3160829 C5.76392577,4.57763732 5.76392577,5.00134542 5.50115376,5.26289984 C5.36959953,5.39342603 5.19750238,5.45885647 5.02523699,5.45885647 C4.85297161,5.45885647 4.68087445,5.39342603 4.54932022,5.26289984 L3.61986099,4.33817195 C3.35708898,4.07678488 3.35708898,3.65290943 3.61986099,3.39152236 C3.88263299,3.13013529 4.3087543,3.13013529 4.5715263,3.39152236 Z M12.1487135,-1.81166193e-12 C12.5203289,-1.81166193e-12 12.8216251,0.299708224 12.8216251,0.669365101 L12.8216251,1.97696982 C12.8216251,2.3466267 12.5203289,2.64633492 12.1487135,2.64633492 C11.777098,2.64633492 11.4758018,2.3466267 11.4758018,1.97696982 L11.4758018,0.669365101 C11.4758018,0.299708224 11.777098,-1.81166193e-12 12.1487135,-1.81166193e-12 Z" id="Combined-Shape" fill="#747474"></path>
            </g>
        </g>
    </g>
</svg>