<?xml version="1.0" encoding="UTF-8"?>
<svg width="25px" height="26px" viewBox="0 0 25 26" version="1.1" xmlns="http://www.w3.org/2000/svg" xmlns:xlink="http://www.w3.org/1999/xlink">
    <title>Group 10@1.5x</title>
    <g id="Symbols" stroke="none" stroke-width="1" fill="none" fill-rule="evenodd">
        <g id="健康日記_tabbar" transform="translate(-102.000000, -12.000000)" fill="#747474">
            <g id="Group-10" transform="translate(102.000000, 12.000000)">
                <path d="M12.5003153,0 C19.4076025,0 25.003084,5.82292649 25.0000038,13.0071681 C24.99689,20.1831897 19.4002615,26.0004338 12.4999399,26 C5.59400833,25.9996096 -0.00528968572,20.1728008 3.75011921e-06,12.9922463 C0.00530469683,5.81373047 5.59913868,-0.000260264819 12.5003153,0 Z M12.5002319,3.31438572 C7.35853611,3.31419052 3.19085618,7.64588636 3.18691177,12.99422 C3.18297295,18.3440718 7.35471963,22.6853106 12.4999399,22.685636 C17.6410309,22.6859613 21.8107755,18.3518363 21.8130705,13.0053463 C21.8154053,7.65274 17.6464741,3.31438572 12.5002319,3.31438572 Z M8.5325996,10.0074617 C9.76496656,10.1035688 10.686425,11.0379682 10.7066184,12.2189032 C10.7082593,12.3150104 10.7374227,12.3313504 10.829376,12.3309554 C11.6051049,12.32765 12.3808557,12.3270263 13.1565628,12.3315583 C13.2589082,12.3321612 13.2886404,12.3079837 13.2976979,12.2095274 C13.3939393,11.1640113 14.1346634,10.378232 15.2130529,10.1694905 C16.5114477,9.91815251 17.816209,10.8129697 17.9842979,12.0656889 C18.0140739,12.2875482 17.9923709,12.5076612 17.9922833,12.728689 L17.9917856,15.7964908 L17.9917856,15.7964908 L17.9918458,18.8643082 C17.9918458,18.9786354 17.9917815,18.9949984 17.9035601,18.9973534 L17.8516952,18.9977523 C16.3803546,18.9977523 14.909014,18.9966712 13.4376735,19 C13.3320901,19.0002469 13.2986387,18.9821814 13.2990106,18.8728525 C13.3036706,17.4713263 13.3011546,16.0697793 13.3043269,14.668253 C13.3045238,14.5790478 13.2853149,14.5535814 13.1868857,14.5541427 C12.3966079,14.5585499 11.6062863,14.558155 10.8160085,14.5545377 C10.7231582,14.5541011 10.6950231,14.5713351 10.6953075,14.6659039 C10.6991361,16.0155202 10.6966639,17.3651781 10.7004707,18.7147944 C10.7007551,18.8146435 10.6760111,18.8396526 10.5699464,18.8394031 C9.08771059,18.8357443 7.60545288,18.8360145 6.12319518,18.8390497 C6.0284196,18.8392368 6.00247227,18.8196952 6.00282231,18.726353 L6.00552151,17.0549009 L6.00552151,17.0549009 L6.00531641,15.3834333 C6.00531641,14.4559982 6.00641031,13.5285632 6.00466007,12.6011282 C6.004135,12.3282945 5.98144749,12.0562715 6.0411526,11.7844773 C6.28327665,10.6821451 7.35442449,9.9155539 8.5325996,10.0074617 Z M15.4890292,6 C16.3254094,5.99693722 16.9984204,6.66452435 17,7.4987029 C17.0015545,8.32888216 16.3340036,8.99804537 15.5023739,9 C14.6739572,9.00194616 14.0002957,8.33024152 14,7.50199296 C13.9997438,6.67701477 14.6679255,6.00300512 15.4890292,6 Z M9.97532002,7.27010074 C9.99899719,7.42149545 9.99889903,7.57577442 9.99803518,7.72956288 C9.99589521,8.1149562 9.99353927,8.50040838 9.99993957,8.8857036 C10.0015691,8.98488715 9.97047071,9.00097627 9.87911921,8.99995598 C9.41847443,8.99483493 8.95773149,8.99760148 8.49700818,8.99760148 L8.49700818,8.98402383 C8.03294729,8.98402383 7.56884713,8.98111994 7.10484514,8.9865353 C7.01443602,8.98759483 6.99927948,8.96026294 7,8.87763942 C7.00408952,8.42043368 7.00153726,7.96316907 7.00204771,7.50592409 C7.00295082,6.72454218 7.60483408,6.05949246 8.36026561,6.00439703 C9.16585898,5.94565211 9.85186886,6.48122365 9.97532002,7.27010074 Z" id="Combined-Shape"></path>
            </g>
        </g>
    </g>
</svg>