<?xml version="1.0" encoding="UTF-8"?>
<svg width="24px" height="22px" viewBox="0 0 24 22" version="1.1" xmlns="http://www.w3.org/2000/svg" xmlns:xlink="http://www.w3.org/1999/xlink">
    <title>Star@1.5x</title>
    <g id="Symbols" stroke="none" stroke-width="1" fill="none" fill-rule="evenodd">
        <g id="健康日記_tabbar" transform="translate(-323.000000, -14.000000)" fill="#747474">
            <g transform="translate(1.000000, 1.000000)" id="Star">
                <path d="M334,31.5 L328.152264,34.5743368 C327.663419,34.8313376 327.058792,34.6433911 326.801791,34.1545465 C326.699452,33.959886 326.664138,33.736918 326.701314,33.5201603 L327.818133,27.0086105 L327.818133,27.0086105 L323.087215,22.3971052 C322.691731,22.011604 322.683639,21.3784908 323.06914,20.9830072 C323.222649,20.8255235 323.423791,20.7230364 323.641428,20.6914119 L330.179396,19.7413895 L330.179396,19.7413895 L333.103264,13.8169858 C333.347686,13.3217321 333.947312,13.1183931 334.442566,13.3628154 C334.639778,13.4601456 334.799406,13.6197731 334.896736,13.8169858 L337.820604,19.7413895 L337.820604,19.7413895 L344.358572,20.6914119 C344.905117,20.7708295 345.283798,21.2782723 345.204381,21.8248172 C345.172756,22.0424542 345.070269,22.2435966 344.912785,22.3971052 L340.181867,27.0086105 L340.181867,27.0086105 L341.298686,33.5201603 C341.392047,34.0644968 341.026459,34.5814527 340.482122,34.6748137 C340.265365,34.7119906 340.042397,34.6766759 339.847736,34.5743368 L334,31.5 L334,31.5 Z"></path>
            </g>
        </g>
    </g>
</svg>